<svg xmlns="http://www.w3.org/2000/svg" xmlns:xlink="http://www.w3.org/1999/xlink" viewBox="0 0 373.56 812.57"><defs><style>.cls-1{isolation:isolate;}.cls-2,.cls-24,.cls-5{fill:none;}.cls-3{fill:#972722;}.cls-4,.cls-6{fill:#fdb517;}.cls-5{stroke:#f69320;stroke-linecap:round;stroke-miterlimit:10;stroke-width:0.75px;}.cls-10,.cls-13,.cls-6{opacity:0.5;mix-blend-mode:multiply;}.cls-7{fill:#81c1d8;}.cls-8{fill:#a8cbdb;}.cls-10,.cls-9{fill:#528aa3;}.cls-11{fill:#6ca8c4;}.cls-12{fill:#f69320;}.cls-14{fill:#d1eefc;}.cls-15{fill:#c0e7fb;}.cls-16{fill:#3b778d;}.cls-17{fill:url(#linear-gradient);}.cls-18{opacity:0.51;}.cls-18,.cls-20,.cls-22{mix-blend-mode:screen;}.cls-19{fill:url(#linear-gradient-2);}.cls-20{opacity:0.7;}.cls-21{fill:url(#linear-gradient-3);}.cls-22{opacity:0.49;}.cls-23{fill:#fff;}.cls-24{stroke:#e19f25;stroke-miterlimit:1;stroke-width:0.59px;}.cls-25{opacity:0.58;}.cls-26{fill:#bc862c;}</style><linearGradient id="linear-gradient" x1="187.25" y1="431.42" x2="187.25" y2="70.65" gradientUnits="userSpaceOnUse"><stop offset="0" stop-color="#db9a28"/><stop offset="0.62" stop-color="#c98d2b"/><stop offset="0.63" stop-color="#d39629"/><stop offset="0.98" stop-color="#b37d2b"/></linearGradient><linearGradient id="linear-gradient-2" x1="187.25" y1="431.42" x2="187.25" y2="70.65" gradientUnits="userSpaceOnUse"><stop offset="0" stop-color="#c48c2c"/><stop offset="0.5" stop-color="#b17e2c"/><stop offset="0.58" stop-color="#b7832c"/><stop offset="0.76" stop-color="#c18a2c"/><stop offset="1" stop-color="#c48c2c"/></linearGradient><linearGradient id="linear-gradient-3" x1="187.25" y1="70.65" x2="187.25" y2="431.42" gradientUnits="userSpaceOnUse"><stop offset="0" stop-color="#fff" stop-opacity="0.77"/><stop offset="0.2" stop-color="#fff" stop-opacity="0.65"/><stop offset="0.34" stop-color="#fff" stop-opacity="0.65"/><stop offset="0.35" stop-color="#fff" stop-opacity="0.65"/><stop offset="0.37" stop-color="#fff" stop-opacity="0.62"/><stop offset="0.4" stop-color="#fff" stop-opacity="0.53"/><stop offset="0.43" stop-color="#fff" stop-opacity="0.39"/><stop offset="0.47" stop-color="#fff" stop-opacity="0.2"/><stop offset="0.51" stop-color="#fff" stop-opacity="0"/><stop offset="0.53" stop-color="#ece3d4" stop-opacity="0.03"/><stop offset="0.61" stop-color="#c0a473" stop-opacity="0.11"/><stop offset="0.71" stop-color="#a77f3b" stop-opacity="0.15"/><stop offset="1" stop-color="#a0752b" stop-opacity="0.16"/></linearGradient></defs><title>aqsa</title><g class="cls-1"><g id="Layer_1" data-name="Layer 1"><rect class="cls-2" width="373.56" height="812"/><path class="cls-3" d="M44.9,679.27s-19.32-9.39-33.8,12.34l8.17-3.71-1.9,3.71,12.9-6.25-.79,2.54S33.41,684.57,44.9,679.27Z" transform="translate(-1.44)"/><path class="cls-3" d="M44.36,679.85s-7.76-14.26-26.21-7.25l6.65,1.31L22,675.36l10.68,1.82-1.6,1.21S35,678.06,44.36,679.85Z" transform="translate(-1.44)"/><path class="cls-3" d="M43.88,679.26s.71-11.16-12.63-13.86l3.41,3.21-2.17-.19,5.56,5-1.38.12S39.06,674.77,43.88,679.26Z" transform="translate(-1.44)"/><path class="cls-3" d="M44.2,679.26s-14.72.9-16.06,18.78l3.63-5,.12,2.86,5.61-8.09.39,1.78S39.11,686.3,44.2,679.26Z" transform="translate(-1.44)"/><path class="cls-3" d="M41.48,679.27s19.32-9.39,33.8,12.34l-8.17-3.71L69,691.61l-12.9-6.25.8,2.54S53,684.57,41.48,679.27Z" transform="translate(-1.44)"/><path class="cls-3" d="M42,679.85s7.77-14.26,26.22-7.25l-6.66,1.31,2.8,1.45-10.68,1.82,1.6,1.21S51.41,678.06,42,679.85Z" transform="translate(-1.44)"/><path class="cls-3" d="M42.5,679.26s-.72-11.16,12.62-13.86l-3.4,3.21,2.16-.19-5.56,5,1.39.12S47.32,674.77,42.5,679.26Z" transform="translate(-1.44)"/><path class="cls-3" d="M42.18,679.26s14.72.9,16.06,18.78l-3.64-5-.11,2.86-5.61-8.09-.39,1.78S47.27,686.3,42.18,679.26Z" transform="translate(-1.44)"/><path class="cls-3" d="M47.43,808c.34-7,.54-16.67.54-30.07C48,745,46.8,699,45.12,677.25H41.25C39.58,699,38.41,745,38.41,777.88c0,13.4.2,23.08.54,30.07Z" transform="translate(-1.44)"/><path class="cls-3" d="M26.5,719.16s-14-6.81-24.54,9l5.93-2.69-1.37,2.69,9.36-4.54-.57,1.85S18.16,723,26.5,719.16Z" transform="translate(-1.44)"/><path class="cls-3" d="M26.11,719.58s-5.63-10.35-19-5.26l4.83.95-2,1.05,7.76,1.32-1.16.88S19.29,718.29,26.11,719.58Z" transform="translate(-1.44)"/><path class="cls-3" d="M25.76,719.16s.52-8.11-9.16-10.07l2.47,2.33-1.58-.13,4,3.62-1,.09A28,28,0,0,1,25.76,719.16Z" transform="translate(-1.44)"/><path class="cls-3" d="M26,719.16s-10.68.65-11.66,13.63L17,729.18l.09,2.07,4.07-5.87.28,1.3S22.3,724.27,26,719.16Z" transform="translate(-1.44)"/><path class="cls-3" d="M24,719.16s14-6.81,24.54,9l-5.94-2.69L44,728.12l-9.37-4.54.58,1.85S32.36,723,24,719.16Z" transform="translate(-1.44)"/><path class="cls-3" d="M24.41,719.58s5.63-10.35,19-5.26l-4.84.95,2,1.05-7.75,1.32,1.16.88S31.22,718.29,24.41,719.58Z" transform="translate(-1.44)"/><path class="cls-3" d="M24.76,719.16s-.52-8.11,9.16-10.07l-2.47,2.33,1.57-.13-4,3.62,1,.09A28,28,0,0,0,24.76,719.16Z" transform="translate(-1.44)"/><path class="cls-3" d="M24.52,719.16s10.69.65,11.67,13.63l-2.64-3.61-.09,2.07-4.07-5.87-.28,1.3S28.22,724.27,24.52,719.16Z" transform="translate(-1.44)"/><path class="cls-3" d="M28.34,812.57c.25-5.07.39-12.1.39-21.82,0-23.85-.85-57.24-2.07-73.06H23.85c-1.21,15.82-2.06,49.21-2.06,73.06,0,9.72.14,16.75.39,21.82Z" transform="translate(-1.44)"/><path class="cls-3" d="M329.2,678.8s19.32-9.39,33.8,12.34l-8.17-3.71,1.9,3.71-12.9-6.25.79,2.54S340.69,684.1,329.2,678.8Z" transform="translate(-1.44)"/><path class="cls-3" d="M329.74,679.38s7.76-14.26,26.21-7.25l-6.65,1.31,2.79,1.45-10.68,1.81,1.6,1.22S339.13,677.59,329.74,679.38Z" transform="translate(-1.44)"/><path class="cls-3" d="M330.22,678.79s-.71-11.17,12.62-13.86l-3.4,3.2,2.17-.18-5.57,5,1.39.12S335,674.3,330.22,678.79Z" transform="translate(-1.44)"/><path class="cls-3" d="M329.9,678.79s14.72.9,16.06,18.78l-3.64-5-.11,2.86-5.61-8.09-.39,1.78S335,685.83,329.9,678.79Z" transform="translate(-1.44)"/><path class="cls-3" d="M332.62,678.8s-19.32-9.39-33.8,12.34l8.17-3.71-1.9,3.71,12.9-6.25-.79,2.54S321.13,684.1,332.62,678.8Z" transform="translate(-1.44)"/><path class="cls-3" d="M332.08,679.38s-7.76-14.26-26.21-7.25l6.65,1.31-2.79,1.45,10.68,1.81-1.6,1.22S322.69,677.59,332.08,679.38Z" transform="translate(-1.44)"/><path class="cls-3" d="M331.6,678.79s.71-11.17-12.62-13.86l3.4,3.2-2.17-.18,5.57,5-1.39.12S326.78,674.3,331.6,678.79Z" transform="translate(-1.44)"/><path class="cls-3" d="M331.92,678.79s-14.72.9-16.06,18.78l3.64-5,.11,2.86,5.61-8.09.39,1.78S326.83,685.83,331.92,678.79Z" transform="translate(-1.44)"/><path class="cls-3" d="M326.67,807.48c-.34-7-.54-16.67-.54-30.07,0-32.85,1.17-78.85,2.84-100.63h3.88c1.67,21.78,2.84,67.78,2.84,100.63,0,13.4-.2,23.08-.54,30.07Z" transform="translate(-1.44)"/><path class="cls-3" d="M347.6,718.69s14-6.81,24.54,9L366.2,725l1.38,2.69-9.36-4.54.57,1.85S355.94,722.53,347.6,718.69Z" transform="translate(-1.44)"/><path class="cls-3" d="M348,719.11s5.63-10.35,19-5.26l-4.83.95,2,1.05-7.75,1.32,1.16.88S354.81,717.81,348,719.11Z" transform="translate(-1.44)"/><path class="cls-3" d="M348.34,718.69s-.52-8.11,9.16-10.07L355,711l1.57-.13-4,3.62,1,.08A28.51,28.51,0,0,0,348.34,718.69Z" transform="translate(-1.44)"/><path class="cls-3" d="M348.11,718.69s10.68.64,11.66,13.63l-2.64-3.61-.09,2.07L353,724.91l-.28,1.3S351.8,723.8,348.11,718.69Z" transform="translate(-1.44)"/><path class="cls-3" d="M350.08,718.69s-14-6.81-24.54,9l5.94-2.69-1.38,2.69,9.36-4.54-.57,1.85S341.74,722.53,350.08,718.69Z" transform="translate(-1.44)"/><path class="cls-3" d="M349.69,719.11s-5.63-10.35-19-5.26l4.83.95-2,1.05,7.75,1.32-1.16.88S342.87,717.81,349.69,719.11Z" transform="translate(-1.44)"/><path class="cls-3" d="M349.34,718.69s.52-8.11-9.16-10.07l2.47,2.33-1.57-.13,4,3.62-1,.08A28.51,28.51,0,0,1,349.34,718.69Z" transform="translate(-1.44)"/><path class="cls-3" d="M349.58,718.69s-10.69.64-11.67,13.63l2.64-3.61.09,2.07,4.07-5.87.28,1.3S345.88,723.8,349.58,718.69Z" transform="translate(-1.44)"/><path class="cls-3" d="M345.76,812.1c-.25-5.07-.39-12.1-.39-21.82,0-23.86.85-57.24,2.06-73.06h2.82c1.21,15.82,2.06,49.2,2.06,73.06,0,9.72-.14,16.75-.39,21.82Z" transform="translate(-1.44)"/><path class="cls-4" d="M189.74,596.76a11.14,11.14,0,0,1-1.12-1.68h-.79a11.14,11.14,0,0,1-1.12,1.68,1.18,1.18,0,0,0,.59,1.94h1.85A1.18,1.18,0,0,0,189.74,596.76Z" transform="translate(-1.44)"/><path class="cls-4" d="M190.83,612.21a16.2,16.2,0,0,1-1.92-2.63h-1.36a16.5,16.5,0,0,1-1.93,2.63,1.79,1.79,0,0,0,1,3h3.17C191.62,614.69,191.68,613,190.83,612.21Z" transform="translate(-1.44)"/><path class="cls-4" d="M190.18,607.51c0,.51-.88.92-2,.92s-1.95-.41-1.95-.92.87-.93,1.95-.93S190.18,607,190.18,607.51Z" transform="translate(-1.44)"/><path class="cls-4" d="M190.53,602.71a2.32,2.32,0,1,1-2.3-2A2.18,2.18,0,0,1,190.53,602.71Z" transform="translate(-1.44)"/><polygon class="cls-4" points="187.76 614.5 185.82 614.5 186.35 593.26 187.24 593.26 187.76 614.5"/><path class="cls-4" d="M188.23,588a3,3,0,1,0,3,3A3,3,0,0,0,188.23,588Zm0,4.58a2.09,2.09,0,1,1,2.09-2.09A2.09,2.09,0,0,1,188.23,592.6Z" transform="translate(-1.44)"/><path class="cls-4" d="M253.65,691.08H122.8a86.44,86.44,0,0,1,0-8.89,72.41,72.41,0,0,1,2.92-18.07c3.93-12.32,21.79-42.5,60-49.64h5c38.21,7.14,56.07,37.32,60,49.64a72.45,72.45,0,0,1,2.93,18.07A84.43,84.43,0,0,1,253.65,691.08Z" transform="translate(-1.44)"/><path class="cls-5" d="M241.84,664.39c-3.37-12.19-18.69-42.07-51.46-49.14h-4.31c-32.77,7.07-48.08,37-51.45,49.14s-2.5,26.69-2.5,26.69H244.34S245.21,676.59,241.84,664.39Z" transform="translate(-1.44)"/><path class="cls-5" d="M233.39,664.39c-2.84-12.19-15.74-42.07-43.35-49.14h-3.63c-27.6,7.07-40.5,37-43.34,49.14S141,691.08,141,691.08h94.53S236.22,676.59,233.39,664.39Z" transform="translate(-1.44)"/><path class="cls-5" d="M223.68,664.39c-2.22-12.19-12.35-42.07-34-49.14H186.8c-21.67,7.07-31.8,37-34,49.14s-1.65,26.69-1.65,26.69h74.22S225.91,676.59,223.68,664.39Z" transform="translate(-1.44)"/><path class="cls-5" d="M212.14,664.39c-1.5-12.19-8.33-42.07-22.95-49.14h-1.92c-14.62,7.07-21.45,37-23,49.14a211.7,211.7,0,0,0-1.11,26.69h50.06A212.68,212.68,0,0,0,212.14,664.39Z" transform="translate(-1.44)"/><path class="cls-5" d="M202,664.39c-.86-12.19-4.81-42.07-13.26-49.14h-1.11c-8.44,7.07-12.39,37-13.26,49.14s-.64,26.69-.64,26.69h28.92S202.91,676.59,202,664.39Z" transform="translate(-1.44)"/><path class="cls-5" d="M193.41,664.39c-.33-12.19-1.81-42.07-5-49.14H188c-3.17,7.07-4.65,37-5,49.14s-.24,26.69-.24,26.69h10.84S193.73,676.59,193.41,664.39Z" transform="translate(-1.44)"/><path class="cls-5" d="M124.25,677.91c11-4.56,35.51-7.73,64-7.73s53,3.17,64,7.73" transform="translate(-1.44)"/><path class="cls-5" d="M125.39,670c11.49-4.32,35.31-7.29,62.84-7.29s51.35,3,62.84,7.29" transform="translate(-1.44)"/><path class="cls-5" d="M248.7,661.8h0c-12.2-3.88-34.72-6.47-60.47-6.47s-48.27,2.59-60.47,6.47h0" transform="translate(-1.44)"/><path class="cls-5" d="M132,653.18c12.79-3.2,33.2-5.27,56.21-5.27s43.42,2.07,56.21,5.27" transform="translate(-1.44)"/><path class="cls-5" d="M138,644.45c12.74-2.46,30.55-4,50.26-4s37.52,1.52,50.26,4" transform="translate(-1.44)"/><path class="cls-5" d="M145.87,635.72a308.8,308.8,0,0,1,42.36-2.67,308.8,308.8,0,0,1,42.36,2.67" transform="translate(-1.44)"/><path class="cls-5" d="M156.68,627c9.48-.9,20.2-1.4,31.55-1.4s22.06.5,31.54,1.4" transform="translate(-1.44)"/><path class="cls-5" d="M202.71,618.48h0c-4.67-.18-9.52-.28-14.48-.28s-9.81.1-14.48.28h0" transform="translate(-1.44)"/><path class="cls-6" d="M253.65,691.08H122.8a86.44,86.44,0,0,1,0-8.89c13.84-4.57,38-7.59,65.44-7.59s51.59,3,65.44,7.59A84.43,84.43,0,0,1,253.65,691.08Z" transform="translate(-1.44)"/><rect class="cls-7" x="360.4" y="787.22" width="3.72" height="23.75"/><rect class="cls-7" x="359.36" y="786.8" width="5.79" height="1.72"/><rect class="cls-7" x="359.36" y="810.32" width="5.79" height="1.72"/><path class="cls-8" d="M367.78,778v9.55l-10.29-1-5.6-.51V769.79l5.6.51,3.59.34a7.55,7.55,0,0,1,6.38,5.24A6.85,6.85,0,0,1,367.78,778Z" transform="translate(-1.44)"/><path class="cls-9" d="M351.89,774.43v8.66l15.89,1.47V778a7,7,0,0,0-.32-2.09Z" transform="translate(-1.44)"/><polygon class="cls-10" points="356.05 770.3 356.05 786.55 350.46 786.04 350.46 769.79 356.05 770.3"/><polygon class="cls-8" points="265.67 720.9 265.67 812.03 354.24 812.03 354.24 734.48 265.67 720.9"/><polygon class="cls-9" points="265.67 720.9 265.67 778.53 354.24 784.56 354.24 734.48 265.67 720.9"/><polygon class="cls-11" points="265.67 740.07 265.67 742.46 354.24 754.94 354.24 752.56 265.67 740.07"/><polygon class="cls-8" points="265.67 732.81 265.67 738.05 354.24 750.54 354.24 745.3 265.67 732.81"/><polygon class="cls-11" points="265.67 725.67 265.67 726.62 354.24 739.75 354.24 738.79 265.67 725.67"/><polygon class="cls-11" points="270.64 778.53 289.78 779.78 289.78 752.14 270.64 749.72 270.64 778.53"/><path class="cls-9" d="M273.82,758v19.22l15.78,1.08V759.73c0-3.55-3.45-6.85-7.75-7.38h0C277.46,751.81,273.84,754.33,273.82,758Z" transform="translate(-1.44)"/><polygon class="cls-8" points="272.38 758 272.38 762.03 288.16 763.63 288.16 759.73 272.38 758"/><polygon class="cls-11" points="275.84 765.57 275.84 769.56 284.89 770.34 284.89 766.42 275.84 765.57"/><polygon class="cls-8" points="272.38 771.4 272.38 775.44 288.16 776.58 288.16 772.68 272.38 771.4"/><polygon class="cls-11" points="294.72 780.11 312 781.24 312 754.96 294.72 752.77 294.72 780.11"/><path class="cls-9" d="M297.73,760.62v18.24l14.24,1V762.18c0-3.37-3.12-6.49-7-7h0C301,754.72,297.75,757.14,297.73,760.62Z" transform="translate(-1.44)"/><polygon class="cls-8" points="296.3 760.62 296.3 764.45 310.53 765.88 310.53 762.18 296.3 760.62"/><polygon class="cls-11" points="299.41 767.78 299.41 771.58 307.57 772.28 307.57 768.55 299.41 767.78"/><polygon class="cls-8" points="296.3 773.34 296.3 777.17 310.53 778.2 310.53 774.49 296.3 773.34"/><polygon class="cls-11" points="316.46 781.53 332.13 782.56 332.13 757.51 316.46 755.52 316.46 781.53"/><path class="cls-9" d="M319.32,763v17.35l12.91.89V764.4c0-3.21-2.83-6.17-6.35-6.6h0C322.29,757.35,319.34,759.67,319.32,763Z" transform="translate(-1.44)"/><polygon class="cls-8" points="317.89 762.99 317.89 766.63 330.8 767.93 330.8 764.4 317.89 762.99"/><polygon class="cls-11" points="320.71 769.79 320.71 773.4 328.11 774.04 328.11 770.49 320.71 769.79"/><polygon class="cls-8" points="317.89 775.09 317.89 778.73 330.8 779.67 330.8 776.13 317.89 775.09"/><polygon class="cls-11" points="336.19 782.83 350.46 783.76 350.46 759.83 336.19 758.02 336.19 782.83"/><path class="cls-9" d="M338.92,765.14v16.54l11.76.81V766.42a6.61,6.61,0,0,0-5.79-6.27h0A5.08,5.08,0,0,0,338.92,765.14Z" transform="translate(-1.44)"/><polygon class="cls-8" points="337.48 765.14 337.48 768.61 349.24 769.79 349.24 766.42 337.48 765.14"/><polygon class="cls-11" points="340.05 771.61 340.05 775.06 346.79 775.63 346.79 772.25 340.05 771.61"/><polygon class="cls-8" points="337.48 776.68 337.48 780.15 349.24 781 349.24 777.63 337.48 776.68"/><rect class="cls-7" x="10.9" y="787.22" width="3.72" height="23.75" transform="translate(24.08 1598.19) rotate(180)"/><rect class="cls-7" x="9.86" y="786.8" width="5.79" height="1.72" transform="translate(24.08 1575.33) rotate(180)"/><rect class="cls-7" x="9.86" y="810.32" width="5.79" height="1.72" transform="translate(24.08 1622.35) rotate(180)"/><path class="cls-8" d="M8.67,778v9.55l10.29-1,5.6-.51V769.79l-5.6.51-3.59.34A7.55,7.55,0,0,0,9,775.88,6.85,6.85,0,0,0,8.67,778Z" transform="translate(-1.44)"/><path class="cls-9" d="M24.56,774.43v8.66L8.67,784.56V778A7,7,0,0,1,9,775.87Z" transform="translate(-1.44)"/><polygon class="cls-10" points="17.53 770.3 17.53 786.55 23.13 786.04 23.13 769.79 17.53 770.3"/><polygon class="cls-8" points="107.91 720.9 107.91 812.03 19.34 812.03 19.34 734.48 107.91 720.9"/><polygon class="cls-9" points="107.91 720.9 107.91 778.53 19.34 784.56 19.34 734.48 107.91 720.9"/><polygon class="cls-11" points="107.91 740.07 107.91 742.46 19.34 754.94 19.34 752.56 107.91 740.07"/><polygon class="cls-8" points="107.91 732.81 107.91 738.05 19.34 750.54 19.34 745.3 107.91 732.81"/><polygon class="cls-11" points="107.91 725.67 107.91 726.62 19.34 739.75 19.34 738.79 107.91 725.67"/><polygon class="cls-11" points="102.95 778.53 83.8 779.78 83.8 752.14 102.95 749.72 102.95 778.53"/><path class="cls-9" d="M102.63,758v19.22L86.86,778.3V759.73c0-3.55,3.45-6.85,7.75-7.38h0C99,751.81,102.62,754.33,102.63,758Z" transform="translate(-1.44)"/><polygon class="cls-8" points="101.2 758 101.2 762.03 85.42 763.63 85.42 759.73 101.2 758"/><polygon class="cls-11" points="97.74 765.57 97.74 769.56 88.7 770.34 88.7 766.42 97.74 765.57"/><polygon class="cls-8" points="101.2 771.4 101.2 775.44 85.42 776.58 85.42 772.68 101.2 771.4"/><polygon class="cls-11" points="78.86 780.11 61.59 781.24 61.59 754.96 78.86 752.77 78.86 780.11"/><path class="cls-9" d="M78.72,760.62v18.24l-14.23,1V762.18c0-3.37,3.11-6.49,7-7h0C75.45,754.72,78.71,757.14,78.72,760.62Z" transform="translate(-1.44)"/><polygon class="cls-8" points="77.29 760.62 77.29 764.45 63.05 765.88 63.05 762.18 77.29 760.62"/><polygon class="cls-11" points="74.17 767.78 74.17 771.58 66.01 772.28 66.01 768.55 74.17 767.78"/><polygon class="cls-8" points="77.29 773.34 77.29 777.17 63.05 778.2 63.05 774.49 77.29 773.34"/><polygon class="cls-11" points="57.12 781.53 41.46 782.56 41.46 757.51 57.12 755.52 57.12 781.53"/><path class="cls-9" d="M57.13,763v17.35l-12.91.89V764.4c0-3.21,2.83-6.17,6.35-6.6h0C54.16,757.35,57.12,759.67,57.13,763Z" transform="translate(-1.44)"/><polygon class="cls-8" points="55.7 762.99 55.7 766.63 42.79 767.93 42.79 764.4 55.7 762.99"/><polygon class="cls-11" points="52.87 769.79 52.87 773.4 45.47 774.04 45.47 770.49 52.87 769.79"/><polygon class="cls-8" points="55.7 775.09 55.7 778.73 42.79 779.67 42.79 776.13 55.7 775.09"/><polygon class="cls-11" points="37.4 782.83 23.13 783.76 23.13 759.83 37.4 758.02 37.4 782.83"/><path class="cls-9" d="M37.53,765.14v16.54l-11.75.81V766.42a6.61,6.61,0,0,1,5.79-6.27h0A5.08,5.08,0,0,1,37.53,765.14Z" transform="translate(-1.44)"/><polygon class="cls-8" points="36.1 765.14 36.1 768.61 24.34 769.79 24.34 766.42 36.1 765.14"/><polygon class="cls-11" points="33.53 771.61 33.53 775.06 26.79 775.63 26.79 772.25 33.53 771.61"/><polygon class="cls-8" points="36.1 776.68 36.1 780.15 24.34 781 24.34 777.63 36.1 776.68"/><path class="cls-4" d="M259.65,691.41c0-7.3-32-13.22-71.42-13.22s-71.43,5.92-71.43,13.22v4.14H259.65Z" transform="translate(-1.44)"/><path class="cls-12" d="M259.65,695.55c0,1.72-1.77,3.36-5,4.87-10.47,4.89-36.27,8.34-66.42,8.34s-55.95-3.45-66.43-8.34c-3.23-1.51-5-3.15-5-4.87s1.77-3.37,5-4.87c10.48-4.89,36.27-8.35,66.43-8.35s56,3.46,66.42,8.35C257.88,692.18,259.65,693.83,259.65,695.55Z" transform="translate(-1.44)"/><path class="cls-11" d="M254.66,690.68v35.94H121.8V690.68c10.48-4.89,36.27-8.35,66.43-8.35S244.18,685.79,254.66,690.68Z" transform="translate(-1.44)"/><g class="cls-13"><path class="cls-11" d="M188.23,686.87c26.5,0,50.26,2.45,66.43,6.31v-2.5c-10.48-4.89-36.27-8.35-66.43-8.35s-55.95,3.46-66.43,8.35v2.5C138,689.32,161.73,686.87,188.23,686.87Z" transform="translate(-1.44)"/></g><rect class="cls-14" x="107.91" y="720.9" width="157.76" height="91.13"/><rect class="cls-11" x="107.91" y="720.91" width="157.76" height="57.62"/><rect class="cls-7" x="107.91" y="740.07" width="157.76" height="2.39"/><rect class="cls-15" x="107.91" y="732.81" width="157.76" height="5.24"/><rect class="cls-7" x="107.91" y="725.67" width="157.76" height="0.95"/><rect class="cls-7" x="112.24" y="749.72" width="16.25" height="28.81"/><path class="cls-11" d="M128.5,757.81V777.1H115.1V757.81a6.71,6.71,0,0,1,6.7-6.67h0A6.71,6.71,0,0,1,128.5,757.81Z" transform="translate(-1.44)"/><rect class="cls-15" x="113.67" y="757.81" width="13.39" height="4.04"/><rect class="cls-7" x="116.52" y="765.08" width="7.68" height="4.04"/><rect class="cls-15" x="113.67" y="771.26" width="13.39" height="4.05"/><rect class="cls-7" x="133.43" y="749.72" width="16.25" height="28.81"/><path class="cls-11" d="M149.69,757.81V777.1h-13.4V757.81a6.71,6.71,0,0,1,6.7-6.67h0A6.71,6.71,0,0,1,149.69,757.81Z" transform="translate(-1.44)"/><rect class="cls-15" x="134.86" y="757.81" width="13.39" height="4.04"/><rect class="cls-7" x="137.71" y="765.08" width="7.68" height="4.04"/><rect class="cls-15" x="134.86" y="771.26" width="13.39" height="4.05"/><rect class="cls-7" x="154.62" y="749.72" width="16.25" height="28.81"/><path class="cls-11" d="M170.88,757.81V777.1h-13.4V757.81a6.71,6.71,0,0,1,6.7-6.67h0A6.71,6.71,0,0,1,170.88,757.81Z" transform="translate(-1.44)"/><rect class="cls-15" x="156.05" y="757.81" width="13.39" height="4.04"/><rect class="cls-7" x="158.91" y="765.08" width="7.68" height="4.04"/><rect class="cls-15" x="156.05" y="771.26" width="13.39" height="4.05"/><rect class="cls-7" x="202.71" y="749.72" width="16.25" height="28.81"/><path class="cls-11" d="M219,757.81V777.1H205.58V757.81a6.69,6.69,0,0,1,6.69-6.67h0A6.7,6.7,0,0,1,219,757.81Z" transform="translate(-1.44)"/><rect class="cls-15" x="204.14" y="757.81" width="13.39" height="4.04"/><rect class="cls-7" x="207" y="765.08" width="7.68" height="4.04"/><rect class="cls-15" x="204.14" y="771.26" width="13.39" height="4.05"/><rect class="cls-7" x="223.9" y="749.72" width="16.25" height="28.81"/><path class="cls-11" d="M240.16,757.81V777.1H226.77V757.81a6.69,6.69,0,0,1,6.69-6.67h0A6.7,6.7,0,0,1,240.16,757.81Z" transform="translate(-1.44)"/><rect class="cls-15" x="225.33" y="757.81" width="13.39" height="4.04"/><rect class="cls-7" x="228.19" y="765.08" width="7.68" height="4.04"/><rect class="cls-15" x="225.33" y="771.26" width="13.39" height="4.05"/><rect class="cls-7" x="245.09" y="749.72" width="16.25" height="28.81"/><path class="cls-11" d="M261.35,757.81V777.1H248V757.81a6.7,6.7,0,0,1,6.69-6.67h0A6.7,6.7,0,0,1,261.35,757.81Z" transform="translate(-1.44)"/><rect class="cls-15" x="246.52" y="757.81" width="13.39" height="4.04"/><rect class="cls-7" x="249.38" y="765.08" width="7.68" height="4.04"/><rect class="cls-15" x="246.52" y="771.26" width="13.39" height="4.05"/><rect class="cls-7" x="175.01" y="749.72" width="23.56" height="28.81"/><rect class="cls-16" x="172.97" y="776.35" width="27.64" height="35.68"/><path class="cls-15" d="M201.4,764.48a14,14,0,0,0-13.17-8.75h0a14,14,0,0,0-13.17,8.75H171v11.87h34.45V764.48Z" transform="translate(-1.44)"/><rect class="cls-7" x="170.88" y="780.19" width="4.69" height="30.48"/><rect class="cls-7" x="169.57" y="779.65" width="7.31" height="2.2"/><rect class="cls-7" x="169.57" y="809.83" width="7.31" height="2.2"/><rect class="cls-7" x="199.45" y="780.19" width="4.69" height="30.48" transform="translate(402.15 1590.86) rotate(180)"/><rect class="cls-7" x="198.14" y="779.65" width="7.31" height="2.2" transform="translate(402.15 1561.51) rotate(180)"/><rect class="cls-7" x="198.14" y="809.83" width="7.31" height="2.2" transform="translate(402.15 1621.86) rotate(180)"/><path class="cls-11" d="M178.44,774.92V769.1c0-5,4.41-9.09,9.78-9.09s9.77,4.09,9.79,9.11v5.8Z" transform="translate(-1.44)"/><rect class="cls-7" x="168.18" y="774.12" width="37.22" height="6.07"/><rect class="cls-15" x="175.01" y="775.37" width="23.56" height="2.44"/><rect class="cls-15" x="123.61" y="692.6" width="12.3" height="21.87"/><polygon class="cls-7" points="129.76 696.52 134.26 701.85 134.26 694.25 125.26 694.25 125.26 701.85 129.76 696.52"/><polygon class="cls-7" points="129.76 710.56 125.26 705.23 125.26 712.83 134.26 712.83 134.26 705.23 129.76 710.56"/><polygon class="cls-7" points="129.76 706.53 127.24 703.54 129.76 700.55 132.28 703.54 129.76 706.53"/><rect class="cls-15" x="139.9" y="692.6" width="12.3" height="21.87"/><polygon class="cls-7" points="146.05 696.52 150.56 701.85 150.56 694.25 141.55 694.25 141.55 701.85 146.05 696.52"/><polygon class="cls-7" points="146.05 710.56 141.55 705.23 141.55 712.83 150.56 712.83 150.56 705.23 146.05 710.56"/><polygon class="cls-7" points="146.05 706.53 143.53 703.54 146.05 700.55 148.58 703.54 146.05 706.53"/><rect class="cls-15" x="156.2" y="692.6" width="12.3" height="21.87"/><polygon class="cls-7" points="162.35 696.52 166.85 701.85 166.85 694.25 157.85 694.25 157.85 701.85 162.35 696.52"/><polygon class="cls-7" points="162.35 710.56 157.85 705.23 157.85 712.83 166.85 712.83 166.85 705.23 162.35 710.56"/><polygon class="cls-7" points="162.35 706.53 159.83 703.54 162.35 700.55 164.87 703.54 162.35 706.53"/><rect class="cls-15" x="172.49" y="692.6" width="12.3" height="21.87"/><polygon class="cls-7" points="178.64 696.52 183.15 701.85 183.15 694.25 174.14 694.25 174.14 701.85 178.64 696.52"/><polygon class="cls-7" points="178.64 710.56 174.14 705.23 174.14 712.83 183.15 712.83 183.15 705.23 178.64 710.56"/><polygon class="cls-7" points="178.64 706.53 176.12 703.54 178.64 700.55 181.17 703.54 178.64 706.53"/><rect class="cls-15" x="188.79" y="692.6" width="12.3" height="21.87"/><polygon class="cls-7" points="194.94 696.52 199.44 701.85 199.44 694.25 190.44 694.25 190.44 701.85 194.94 696.52"/><polygon class="cls-7" points="194.94 710.56 190.44 705.23 190.44 712.83 199.44 712.83 199.44 705.23 194.94 710.56"/><polygon class="cls-7" points="194.94 706.53 192.42 703.54 194.94 700.55 197.46 703.54 194.94 706.53"/><rect class="cls-15" x="205.08" y="692.6" width="12.3" height="21.87"/><polygon class="cls-7" points="211.23 696.52 215.74 701.85 215.74 694.25 206.73 694.25 206.73 701.85 211.23 696.52"/><polygon class="cls-7" points="211.23 710.56 206.73 705.23 206.73 712.83 215.74 712.83 215.74 705.23 211.23 710.56"/><polygon class="cls-7" points="211.23 706.53 208.71 703.54 211.23 700.55 213.76 703.54 211.23 706.53"/><rect class="cls-15" x="221.38" y="692.6" width="12.3" height="21.87"/><polygon class="cls-7" points="227.53 696.52 232.03 701.85 232.03 694.25 223.03 694.25 223.03 701.85 227.53 696.52"/><polygon class="cls-7" points="227.53 710.56 223.03 705.23 223.03 712.83 232.03 712.83 232.03 705.23 227.53 710.56"/><polygon class="cls-7" points="227.53 706.53 225.01 703.54 227.53 700.55 230.05 703.54 227.53 706.53"/><rect class="cls-15" x="237.67" y="692.6" width="12.3" height="21.87"/><polygon class="cls-7" points="243.82 696.52 248.32 701.85 248.32 694.25 239.32 694.25 239.32 701.85 243.82 696.52"/><polygon class="cls-7" points="243.82 710.56 239.32 705.23 239.32 712.83 248.32 712.83 248.32 705.23 243.82 710.56"/><polygon class="cls-7" points="243.82 706.53 241.3 703.54 243.82 700.55 246.35 703.54 243.82 706.53"/><rect class="cls-7" x="120.37" y="716.44" width="132.85" height="2.14"/><path class="cls-17" d="M332.14,215.74a10.6,10.6,0,0,1-10.36-8.12A187.68,187.68,0,0,0,189.83,71.37l-2.58-.72-2.57.72a187.68,187.68,0,0,0-132,136.25,10.59,10.59,0,0,1-10.31,8.12H32.81l-.05,9.61V431.42h309V215.74Zm0,206.08H42.37V225.35h.05a20.22,20.22,0,0,0,19.64-15.46A178.35,178.35,0,0,1,187.25,80.62,178.32,178.32,0,0,1,312.44,209.89a20.21,20.21,0,0,0,19.65,15.46h.05Z" transform="translate(-1.44)"/><g class="cls-18"><path class="cls-19" d="M332.14,215.74a10.6,10.6,0,0,1-10.36-8.12A187.68,187.68,0,0,0,189.83,71.37l-2.58-.72-2.57.72a187.68,187.68,0,0,0-132,136.25,10.59,10.59,0,0,1-10.31,8.12H32.81l-.05,9.61V431.42h309V215.74Zm0,206.08H42.37V225.35h.05a20.22,20.22,0,0,0,19.64-15.46A178.35,178.35,0,0,1,187.25,80.62,178.32,178.32,0,0,1,312.44,209.89a20.21,20.21,0,0,0,19.65,15.46h.05Z" transform="translate(-1.44)"/></g><g class="cls-20"><path class="cls-21" d="M332.14,215.74a10.6,10.6,0,0,1-10.36-8.12A187.68,187.68,0,0,0,189.83,71.37l-2.58-.72-2.57.72a187.68,187.68,0,0,0-132,136.25,10.59,10.59,0,0,1-10.31,8.12H32.81l-.05,9.61V431.42h309V215.74Zm0,206.08H42.37V225.35h.05a20.22,20.22,0,0,0,19.64-15.46A178.35,178.35,0,0,1,187.25,80.62,178.32,178.32,0,0,1,312.44,209.89a20.21,20.21,0,0,0,19.65,15.46h.05Z" transform="translate(-1.44)"/></g><g class="cls-22"><path class="cls-23" d="M33.12,431.07V230c0-3.75,0-7.22,0-11,0-2.52-.44-2.29,1.85-2.51s4.87.12,7.29,0c9.78-.5,10.79-9.15,13-16.82A187.22,187.22,0,0,1,170.92,76.52c5.26-1.92,13.05-6.07,18.62-4.5a189.22,189.22,0,0,1,85,50.74,186.8,186.8,0,0,1,39.76,62.52q2.21,5.73,4,11.58c1.26,4.08,1.92,8.57,3.5,12.52,2.84,7.09,9.48,7.08,15.91,7.08.41,0,3.85-.1,3.64-.31.12.12-.07.65,0,.81.43,1.06,0,3.22,0,4.35V426c0,1.13.39,3.11,0,4.18s.31.23-.21.51c-1.42.76-5.38,0-6.94,0H33.12s0,.72,0,.72H341.39s0-.36,0-.36v-215s0-.36,0-.36c-4,0-8.75.69-12.58-.53-8-2.54-8.36-12.26-10.47-19.06a186.14,186.14,0,0,0-19.16-42.26A187.42,187.42,0,0,0,189.74,71.35c-5.08-1.44-11.23,1.78-16.09,3.47a187.37,187.37,0,0,0-91.69,69,187.1,187.1,0,0,0-24,46.82q-2.13,6.17-3.82,12.47c-1.09,4.07-1.77,8.09-5.48,10.67-4.27,3-10.58,1.95-15.51,1.95v.18c-.12,23.34,0,46.67,0,70V431.07C33.11,431.48,33.12,431.49,33.12,431.07Z" transform="translate(-1.44)"/><path class="cls-23" d="M42,225.35V422.17s0,.36,0,.36H332.49s0-.36,0-.36V225s0-.37,0-.37a20.23,20.23,0,0,1-15.91-7.45c-4.46-5.57-5.19-13.62-7.33-20.25A178.45,178.45,0,0,0,190.14,80.72C184.22,79,177,83,171.36,85.13A178.41,178.41,0,0,0,66.16,194.2c-2.51,7.38-3.29,16.76-8.24,23A19.82,19.82,0,0,1,49,223.52c-.94.33-6.92.95-7,1.47,0,.23,0,.49,0,.72.1-.7,4.8-.82,5.73-1.07a19.85,19.85,0,0,0,9.32-5.74c5.18-5.67,5.91-14.18,8.19-21.25A177.4,177.4,0,0,1,85,156a178.44,178.44,0,0,1,88.4-70.88q5.43-2,11-3.64c3.59-1.06,5.6-.09,9.24,1.07a178.37,178.37,0,0,1,113.3,108.34c2.63,7.15,3.91,14.87,6.69,21.91a20,20,0,0,0,16.49,12.47c3.13.32,1.93-.92,2.4,1,.83,3.5,0,8.21,0,11.79V419.33c0,.42.29,2.38,0,2.7.14-.15-.28-.33-.76-.22-2.44.52-5.59,0-8.07,0H46.21c-.51,0-4.46,0-4.19.3-.82-.87,0-6.64,0-7.76v-189C42,224.94,42,224.93,42,225.35Z" transform="translate(-1.44)"/></g><path class="cls-24" d="M332.14,215.74a10.6,10.6,0,0,1-10.36-8.12A187.68,187.68,0,0,0,189.83,71.37l-2.58-.72-2.57.72a187.68,187.68,0,0,0-132,136.25,10.59,10.59,0,0,1-10.31,8.12H32.81l-.05,9.61V431.42h309V215.74Zm0,206.08H42.37V225.35h.05a20.22,20.22,0,0,0,19.64-15.46A178.35,178.35,0,0,1,187.25,80.62,178.32,178.32,0,0,1,312.44,209.89a20.21,20.21,0,0,0,19.65,15.46h.05Z" transform="translate(-1.44)"/><g class="cls-25"><path class="cls-26" d="M332.14,215.68c-8.94-.54-10.17-8-12.21-15.12a185.54,185.54,0,0,0-7.62-21.63,187.7,187.7,0,0,0-112.1-104.4c-4.34-1.49-10.36-4.67-15-3.38a191,191,0,0,0-41,16.7A187.51,187.51,0,0,0,56.68,193.67c-2.19,6.69-2.62,17.77-9.86,21-4.09,1.85-9.63,1-14,1v0c-.12,23.9-.05,47.79-.05,71.69V431.48h309V215.68h-9.61v.12h6.22c2.56,0,3-.67,3.39,1.63.41,2.59,0,5.56,0,8.2v196c0,2,1.06,7.74,0,9.31-.92,1.34-7.66.4-9.62.4H35.7c-2.47,0-2.59.55-2.94-1.62-.37-2.35,0-5.07,0-7.46V226.55c0-1.22,0-2.44,0-3.66s-.7-6.2,0-7S38,215.8,39,215.8c7.15,0,12-2.09,14-9.53a211.13,211.13,0,0,1,7.76-23.92A187.77,187.77,0,0,1,164.19,78.43c6.88-2.8,14.43-6.08,21.78-7.36,1.93-.34,3.33.2,5.26.76,4.17,1.2,8.3,2.53,12.38,4a187.85,187.85,0,0,1,107.28,99.93,189.2,189.2,0,0,1,8.44,22.82c2.26,7.62,3,16.6,12.81,17.2Z" transform="translate(-1.44)"/><path class="cls-26" d="M332.14,421.76H51.41c-2.11,0-6.24.82-8.22,0-1.23-.51-.82-.58-.82-2.53V239.53c0-4-.62-8.56,0-12.51.06-.4-.12-1.45.05-1.61.58-.55,4.45-.47,5.41-.74a20.16,20.16,0,0,0,12.55-10.23c3.51-6.81,4.51-15.32,7.12-22.56a176.91,176.91,0,0,1,9.16-21,178.52,178.52,0,0,1,102.26-87.6c3.8-1.26,7.24-2.89,11.13-1.74q5.56,1.65,11,3.65a178.56,178.56,0,0,1,88.63,71.49,176.89,176.89,0,0,1,19.64,42.1c2.21,7,2.95,15.1,8.3,20.58a20.26,20.26,0,0,0,9.05,5.36c1,.29,5.17.35,5.47.79.93,1.34,0,6.61,0,8.17V421.82h0V225.29a20.4,20.4,0,0,1-16.25-8.12c-4.17-5.58-4.91-13.43-7-19.94a176.94,176.94,0,0,0-18.06-38.92A179.3,179.3,0,0,0,231.34,99.6a177.41,177.41,0,0,0-38.51-17.38c-1.54-.49-4-1.66-5.58-1.66-1.46,0-3.52,1-4.88,1.44-3.45,1.07-6.88,2.25-10.26,3.53a176,176,0,0,0-19.62,8.82,178.38,178.38,0,0,0-85,97.4q-2.09,5.81-3.77,11.73c-1.08,3.83-1.7,7.93-3.66,11.44a20.44,20.44,0,0,1-17.7,10.37V421.88H332.14Z" transform="translate(-1.44)"/></g></g></g></svg>