<svg id="Layer_1" data-name="Layer 1" xmlns="http://www.w3.org/2000/svg" viewBox="0 0 102.14 102.14"><defs><style>.cls-1{fill:#010101;}.cls-2{fill:#2a2f33;}.cls-3{fill:#ffd983;}.cls-4{fill:#fbab36;}</style></defs><title>kaaba192</title><path class="cls-1" d="M95.77,43,44.7,57.22V139.5l51.07,5.67,51.07-5.67V57.22Z" transform="translate(-44.7 -43.03)"/><path class="cls-2" d="M95.77,145.17l51.07-5.67V57.22L95.77,43Z" transform="translate(-44.7 -43.03)"/><path class="cls-3" d="M108.41,84.19v9.67l12,1.73V86.21Zm19.86,3.35v9.19l9.36,1.36v-9Zm-32.5-5.48V92l4.77.69V82.87Zm51.07,8.61-1.53-.25V99.2l1.53.22Z" transform="translate(-44.7 -43.03)"/><path class="cls-4" d="M44.7,90.67v8.75l1.53-.22V90.42ZM91,82.87v9.85L95.77,92v-10ZM53.91,89.12v9l9.36-1.36V87.54Zm17.22-2.91v9.38l12-1.73V84.19Z" transform="translate(-44.7 -43.03)"/><path class="cls-3" d="M105.38,86v-.12c0-1.19-.4-2.16-.9-2.16s-.91,1-.91,2.16V86a4.64,4.64,0,0,0-1,3.13,4.48,4.48,0,0,0,1.12,3.27c.18.55.46.94.8.94s.62-.39.8-.94a4.52,4.52,0,0,0,1.11-3.27A4.64,4.64,0,0,0,105.38,86Zm19.86,3v-.12c0-1.2-.4-2.17-.91-2.17s-.9,1-.9,2.17V89a4.61,4.61,0,0,0-1,3.12,4.5,4.5,0,0,0,1.11,3.27c.19.56.47.94.8.94s.62-.38.8-.94a4.46,4.46,0,0,0,1.12-3.27A4.61,4.61,0,0,0,125.24,89Zm17.07,2.92v-.11c0-1.12-.38-2-.84-2s-.85.9-.85,2v.11a4.31,4.31,0,0,0-.94,2.92,4.2,4.2,0,0,0,1,3c.17.52.43.88.75.88s.57-.36.74-.88a4.18,4.18,0,0,0,1-3A4.26,4.26,0,0,0,142.31,91.92Z" transform="translate(-44.7 -43.03)"/><path class="cls-4" d="M86.15,86v-.12c0-1.19.41-2.16.91-2.16s.91,1,.91,2.16V86a4.64,4.64,0,0,1,1,3.13,4.48,4.48,0,0,1-1.12,3.27c-.18.55-.46.94-.8.94s-.62-.39-.8-.94a4.52,4.52,0,0,1-1.11-3.27A4.64,4.64,0,0,1,86.15,86ZM66.3,89v-.12c0-1.2.4-2.17.9-2.17s.91,1,.91,2.17V89a4.61,4.61,0,0,1,1,3.12A4.46,4.46,0,0,1,68,95.39c-.18.56-.46.94-.8.94s-.61-.38-.8-.94a4.5,4.5,0,0,1-1.11-3.27A4.61,4.61,0,0,1,66.3,89ZM49.22,91.92v-.11c0-1.12.38-2,.85-2s.85.9.85,2v.11a4.31,4.31,0,0,1,.94,2.92,4.2,4.2,0,0,1-1,3c-.17.52-.43.88-.75.88s-.58-.36-.75-.88a4.18,4.18,0,0,1-1-3A4.36,4.36,0,0,1,49.22,91.92ZM44.7,74.66v9.93l51.07-9.28V64.63Z" transform="translate(-44.7 -43.03)"/><path class="cls-3" d="M95.77,64.63V75.31l51.07,9.28V74.66Z" transform="translate(-44.7 -43.03)"/></svg>