<svg xmlns="http://www.w3.org/2000/svg" xmlns:xlink="http://www.w3.org/1999/xlink" viewBox="0 0 375 812"><defs><style>.cls-1{isolation:isolate;}.cls-10,.cls-2{fill:none;}.cls-3{fill:url(#New_Gradient_Swatch_16);}.cls-4{opacity:0.7;}.cls-4,.cls-6,.cls-8{mix-blend-mode:screen;}.cls-5{fill:url(#linear-gradient);}.cls-6{opacity:0.51;}.cls-7{fill:url(#radial-gradient);}.cls-8{opacity:0.49;}.cls-9{fill:#fff;}.cls-10{stroke:#915ea7;stroke-miterlimit:1;stroke-width:0.25px;}.cls-11{opacity:0.58;}.cls-12{fill:#925da6;}.cls-13{fill:url(#radial-gradient-2);}</style><linearGradient id="New_Gradient_Swatch_16" x1="187.25" y1="431.42" x2="187.25" y2="70.65" gradientUnits="userSpaceOnUse"><stop offset="0" stop-color="#74499d"/><stop offset="0.62" stop-color="#8e5ca6"/><stop offset="0.63" stop-color="#925da6"/><stop offset="0.98" stop-color="#8a5ba5"/></linearGradient><linearGradient id="linear-gradient" x1="187.25" y1="70.65" x2="187.25" y2="431.42" gradientUnits="userSpaceOnUse"><stop offset="0" stop-color="#fff" stop-opacity="0.77"/><stop offset="0.2" stop-color="#fff" stop-opacity="0.65"/><stop offset="0.34" stop-color="#fff" stop-opacity="0.65"/><stop offset="0.35" stop-color="#fff" stop-opacity="0.65"/><stop offset="0.37" stop-color="#fff" stop-opacity="0.62"/><stop offset="0.4" stop-color="#fff" stop-opacity="0.53"/><stop offset="0.43" stop-color="#fff" stop-opacity="0.39"/><stop offset="0.47" stop-color="#fff" stop-opacity="0.2"/><stop offset="0.51" stop-color="#fff" stop-opacity="0"/><stop offset="0.54" stop-color="#e4d9eb" stop-opacity="0.04"/><stop offset="0.61" stop-color="#ae8fc2" stop-opacity="0.11"/><stop offset="0.71" stop-color="#8f65ab" stop-opacity="0.15"/><stop offset="1" stop-color="#8659a5" stop-opacity="0.16"/></linearGradient><radialGradient id="radial-gradient" cx="187.25" cy="251.04" r="167.94" gradientTransform="translate(0 125.52) scale(1 0.5)" gradientUnits="userSpaceOnUse"><stop offset="0" stop-color="#652f8f" stop-opacity="0"/><stop offset="0.19" stop-color="#652f8f" stop-opacity="0.09"/><stop offset="0.53" stop-color="#652f8f" stop-opacity="0.32"/><stop offset="0.99" stop-color="#652f8f" stop-opacity="0.69"/><stop offset="1" stop-color="#652f8f" stop-opacity="0.7"/></radialGradient><radialGradient id="radial-gradient-2" cx="187.04" cy="506.24" r="558.46" gradientUnits="userSpaceOnUse"><stop offset="0" stop-color="#dbb751"/><stop offset="0.14" stop-color="#e3c87a"/><stop offset="0.34" stop-color="#efdfb3"/><stop offset="0.52" stop-color="#f8f1dc"/><stop offset="0.66" stop-color="#fdfbf6"/><stop offset="0.75" stop-color="#fff"/></radialGradient></defs><title>mosque2</title><g class="cls-1"><g id="Layer_1" data-name="Layer 1"><rect class="cls-2" x="0.72" width="373.56" height="812"/><path class="cls-3" d="M332.14,215.74a10.6,10.6,0,0,1-10.36-8.12A187.68,187.68,0,0,0,189.83,71.37l-2.58-.72-2.57.72a187.68,187.68,0,0,0-132,136.25,10.59,10.59,0,0,1-10.31,8.12H32.81l-.05,9.61V431.42h309V215.74Zm0,206.08H42.37V225.35h.05a20.22,20.22,0,0,0,19.64-15.46A178.35,178.35,0,0,1,187.25,80.62,178.32,178.32,0,0,1,312.44,209.89a20.21,20.21,0,0,0,19.65,15.46h.05Z"/><g class="cls-4"><path class="cls-5" d="M332.14,215.74a10.6,10.6,0,0,1-10.36-8.12A187.68,187.68,0,0,0,189.83,71.37l-2.58-.72-2.57.72a187.68,187.68,0,0,0-132,136.25,10.59,10.59,0,0,1-10.31,8.12H32.81l-.05,9.61V431.42h309V215.74Zm0,206.08H42.37V225.35h.05a20.22,20.22,0,0,0,19.64-15.46A178.35,178.35,0,0,1,187.25,80.62,178.32,178.32,0,0,1,312.44,209.89a20.21,20.21,0,0,0,19.65,15.46h.05Z"/></g><g class="cls-6"><path class="cls-7" d="M332.14,215.74a10.6,10.6,0,0,1-10.36-8.12A187.68,187.68,0,0,0,189.83,71.37l-2.58-.72-2.57.72a187.68,187.68,0,0,0-132,136.25,10.59,10.59,0,0,1-10.31,8.12H32.81l-.05,9.61V431.42h309V215.74Zm0,206.08H42.37V225.35h.05a20.22,20.22,0,0,0,19.64-15.46A178.35,178.35,0,0,1,187.25,80.62,178.32,178.32,0,0,1,312.44,209.89a20.21,20.21,0,0,0,19.65,15.46h.05Z"/></g><g class="cls-8"><path class="cls-9" d="M33.66,430.53V229.8c0-3.5,0-7,0-10.5,0-2.42-.33-2.41,2.15-2.41,2.16,0,4.36.11,6.52,0,9.46-.5,10.92-8.22,13.09-15.82A186.93,186.93,0,0,1,169.75,77.41q5.43-2,11-3.71c2.73-.83,5.34-2,8.11-1.43,15.64,3.48,31.2,10.88,45,18.93a187.12,187.12,0,0,1,68.85,70.3c8.3,14.89,13.37,30.37,18.26,46.58,2.08,6.93,7.65,8.81,14.21,8.81.7,0,5.59-.39,5.73-.25s-.06.48,0,.61c.41.82,0,2.93,0,3.83v204c0,1.28.35,3.17,0,4.4-.28,1,.11.61-.15.78-1.19.75-5.36,0-6.71,0H33.66v.5H340.85V216.39c-3.81,0-8.22.59-11.93-.47-8.11-2.34-8.61-11.29-10.68-18.13a185.93,185.93,0,0,0-19.16-42.91A186.84,186.84,0,0,0,189.59,72c-5.11-1.44-11.59,2-16.44,3.7A186.74,186.74,0,0,0,58.25,191.61q-2.22,6.51-3.94,13.15c-1,4-2.1,7.58-5.8,9.89-4.23,2.63-10,1.74-14.8,1.74v.12c-.12,23,0,46.08,0,69.12v144.9Z"/><path class="cls-9" d="M41.47,225.35V422.71a1.93,1.93,0,0,0,0,.25H333V224.45a2,2,0,0,0,0-.25c-6.3,0-12.23-2.36-16.17-7.42-4.41-5.65-5.14-13.92-7.32-20.59A178.93,178.93,0,0,0,191.69,80.74c-3.59-1.1-4.58-1.29-8.18-.21S176.6,82.72,173.2,84A179,179,0,0,0,66.84,190.74c-1.4,3.84-2.66,7.74-3.79,11.67s-1.7,8-3.58,11.53C55.9,220.69,49,224.2,41.53,224.2h0l-.06.9c0,.15,0,.36,0,.48.08-1.41,6.23-1.56,7.66-2.09a19.28,19.28,0,0,0,8.91-6.77c4.41-6.09,5.2-15,7.6-22.1a178.93,178.93,0,0,1,111-111.37c3-1,7.23-3.19,10.4-3.25s7.22,2,10.21,3A178.83,178.83,0,0,1,308.39,193.27c2.48,7.11,3.34,15.95,7.32,22.34a19.22,19.22,0,0,0,13,8.77c.28.05,4.35.07,4.36.08.22.23,0,1.66,0,2,.67,11.78,0,23.8,0,35.6V420.4c0,2.23.49,1.77-1,2.06-2.62.52-5.88,0-8.54,0h-278c-.5,0-4.12.11-4,.19-.86-.91,0-6.77,0-7.93V225.35C41.48,225.07,41.47,225.06,41.47,225.35Z"/></g><path class="cls-10" d="M332.14,215.74a10.6,10.6,0,0,1-10.36-8.12A187.68,187.68,0,0,0,189.83,71.37l-2.58-.72-2.57.72a187.68,187.68,0,0,0-132,136.25,10.59,10.59,0,0,1-10.31,8.12H32.81l-.05,9.61V431.42h309V215.74Zm0,206.08H42.37V225.35h.05a20.22,20.22,0,0,0,19.64-15.46A178.35,178.35,0,0,1,187.25,80.62,178.32,178.32,0,0,1,312.44,209.89a20.21,20.21,0,0,0,19.65,15.46h.05Z"/><g class="cls-11"><path class="cls-12" d="M332.14,215.12c-8.94-.55-10.17-8-12.21-15.12a186.67,186.67,0,0,0-30.11-60.8A188,188,0,0,0,200.21,74c-4.34-1.48-10.36-4.67-15-3.38a191.53,191.53,0,0,0-41,16.7A187.48,187.48,0,0,0,56.68,193.11c-2.19,6.69-2.62,17.77-9.86,21-4.09,1.84-9.63,1-14,1v.31c-.13,24-.05,48-.05,72V432.05h309V215.12h-9.61s0,1.25,0,1.25h6.22a11.89,11.89,0,0,1,2.92,0c.69.19.38-.74.46,1.06.13,2.72,0,5.48,0,8.2v196c0,2.12,1.06,7.61,0,9.31-.21.33-.06-.28-1-.16a28.46,28.46,0,0,1-3.33,0H35.7c-.55,0-2.31.28-2.81,0s.51,1.09-.12.16a6.16,6.16,0,0,1,0-1.22c-.12-2.47,0-5,0-7.46V226.55c0-1.47,0-1.71,0-3.38,0-1.07-.68-6.26,0-7,.32-.33,5.4.19,6.22.19,7.15,0,12-2.09,14-9.53a211.94,211.94,0,0,1,7.76-23.93A187.72,187.72,0,0,1,164.19,79c6.88-2.81,14.43-6.09,21.78-7.36,1.93-.34,3.33.19,5.26.75q6.26,1.8,12.38,4A187.53,187.53,0,0,1,319.33,199.17c2.26,7.61,3,16.6,12.81,17.2C332.12,216.37,332.17,215.12,332.14,215.12Z"/><path class="cls-12" d="M332.14,421.19h-289c-.4,0-1.34-.06-.81.54-.27-.3,0-2.12,0-2.5V261.65c0-11.54-.13-23.09,0-34.63,0-.29-.14-1,0-1.25.49-.87-.52.46,0,.2,1.39-.62,3.85-.29,5.41-.73a20.82,20.82,0,0,0,4.9-2.1A20.32,20.32,0,0,0,60.38,215c3.51-6.81,4.51-15.32,7.12-22.56a176.91,176.91,0,0,1,9.16-21.05,178.52,178.52,0,0,1,102.26-87.6c3.8-1.26,7.24-2.89,11.13-1.74q5.56,1.65,11,3.66a176.09,176.09,0,0,1,21.6,9.66,179.36,179.36,0,0,1,67,61.82,177.26,177.26,0,0,1,19.64,42.1c2.21,7,2.95,15.1,8.3,20.59a20.26,20.26,0,0,0,9.05,5.36c1,.27,6,.86,5.46.22.9,1,0,6.87,0,8.17V421.82c0,.69,0,.72,0,0V225.35s0-.63,0-.63a20.39,20.39,0,0,1-16.25-8.11c-4.17-5.59-4.91-13.43-7-20a176.65,176.65,0,0,0-18.06-38.91,178.46,178.46,0,0,0-98-76.1c-1.54-.48-4-1.65-5.58-1.65-1.46,0-3.52,1-4.88,1.44-3.45,1.07-6.88,2.24-10.26,3.52A178.44,178.44,0,0,0,67.5,191.19c-1.39,3.86-2.65,7.78-3.77,11.73s-1.7,7.92-3.66,11.43a20.42,20.42,0,0,1-17.7,10.37s0,.62,0,.63V421.82s0,.62,0,.62H332.14S332.15,421.19,332.14,421.19Z"/></g><path class="cls-13" d="M373.69,758.73a59,59,0,0,0-.5,6.4H372v2.42h.7v1.88h.41v18.94H372a24.19,24.19,0,0,0-21.48-16.23v-.86a.56.56,0,0,0-.56-.56h-.44l-.36-9.06a6.41,6.41,0,0,0,3.21.27,6.54,6.54,0,0,0,4.27-2.73,6.55,6.55,0,0,1-8.85-9.28,6.54,6.54,0,0,0,.95,11.6l-.35,9.2H348a.55.55,0,0,0-.55.55v.89a24.21,24.21,0,0,0-21.25,16.63V769.32h.53v-2.41h.89v-3.1h-1.42V739.53h.53v-2.42h.89V734h-1.48a74.72,74.72,0,0,0-.58-8s-3.24-21.35-3.87-21.36-4,21.11-4,21.11A76.79,76.79,0,0,0,317,734h-1.49v3.09h.9v2.42H317v24.28h-1.42v3.1h.9v2.41H317v9.17c-6.4-12.6-18-21.52-31.68-23.16v-1.86c0-.9-.44-1.63-1-1.63H282.4L281,738.09h-.6l-1.37,13.75h-1.91c-.54,0-1,.73-1,1.63v1.86a40.36,40.36,0,0,0-26.74,15.43c-1.78-16.42-11.25-30-36.28-40.07-16.37-6.58-21.86-16.28-23.61-20.85,2.63-.29,4.62-1.57,4.62-3.11s-1.76-2.66-4.15-3.05l-.38-10.37c.79-.24,1.33-.7,1.33-1.23s-.58-1-1.42-1.27l-.38-10.15A21.48,21.48,0,0,0,213.07,669a21.56,21.56,0,0,1-33.41-25.79,21.55,21.55,0,0,0,8.58,37.24l-.62,10.28c-1,.18-1.79.71-1.79,1.35s.68,1.11,1.63,1.32l-.61,10.27c-2.43.38-4.22,1.59-4.22,3.06s2.13,2.9,4.9,3.13c-1.75,4.57-7.25,14.26-23.6,20.83C137.28,741.41,128.27,756.1,127.4,774c-6.7-10.19-17.12-17.21-29.06-18.65v-1.86c0-.9-.44-1.63-1-1.63H95.47l-1.36-13.75h-.6l-1.37,13.75H90.23c-.54,0-1,.73-1,1.63v1.86c-15,1.81-27.66,12.47-33.49,27.16V769.32h.52v-2.41h.9v-3.1H55.76V739.53h.52v-2.42h.9V734H55.7a77.44,77.44,0,0,0-.58-8s-3.25-21.35-3.87-21.36-4,21.11-4,21.11a74.28,74.28,0,0,0-.64,8.21H45.12v3.09H46v2.42h.53v24.28H45.12v3.1H46v2.41h.53v16.62a24.18,24.18,0,0,0-20.48-13.8v-.86a.57.57,0,0,0-.57-.56h-.44l-.36-9.06a6.48,6.48,0,0,0,7.48-2.46,6.55,6.55,0,0,1-8.85-9.28,6.54,6.54,0,0,0,1,11.6l-.35,9.2h-.46a.59.59,0,0,0-.39.16.55.55,0,0,0-.16.39v.89A24.17,24.17,0,0,0,1.84,788.37H1V769.43h.41v-1.88h.7v-2.42H1a58,58,0,0,0-.45-6.21S.32,757.51,0,755.5v56H375V750.88C374.31,754.86,373.69,758.73,373.69,758.73Z"/></g></g></svg>