<svg id="Layer_2" data-name="Layer 2" xmlns="http://www.w3.org/2000/svg" viewBox="0 0 275.47 275.47"><defs><style>.cls-1{fill:#010101;}.cls-2{fill:#2a2f33;}.cls-3{fill:#ffd983;}.cls-4{fill:#fbab36;}</style></defs><title>salat-logo</title><path class="cls-1" d="M250.91,114.28,113.18,152.54V374.45l137.73,15.31,137.74-15.31V152.54Z" transform="translate(-113.18 -114.28)"/><path class="cls-2" d="M250.91,389.76l137.74-15.31V152.54L250.91,114.28Z" transform="translate(-113.18 -114.28)"/><path class="cls-3" d="M285,225.29v26.07l32.36,4.69v-25.3Zm53.56,9v24.78l25.25,3.66V238.58Zm-87.65-14.78v26.88l12.88,1.86V221.72Zm137.74,23.23-4.12-.7v23.69l4.12.6Z" transform="translate(-113.18 -114.28)"/><path class="cls-4" d="M113.18,242.78v23.59l4.12-.6V242.08ZM238,221.72v26.57l12.87-1.86V219.55ZM138,238.58v24.19l25.25-3.66V234.33Zm46.45-7.83v25.3l32.36-4.69V225.29Z" transform="translate(-113.18 -114.28)"/><path class="cls-3" d="M276.85,230.07v-.32c0-3.23-1.1-5.84-2.45-5.84s-2.45,2.61-2.45,5.84v.32c-1.59,1.66-2.72,4.75-2.72,8.44,0,3.92,1.24,7.26,3,8.81.49,1.49,1.25,2.53,2.16,2.53s1.67-1,2.16-2.53c1.76-1.55,3-4.89,3-8.81C279.56,234.82,278.44,231.73,276.85,230.07Zm53.55,8.18v-.32c0-3.23-1.09-5.84-2.44-5.84s-2.45,2.61-2.45,5.84v.32c-1.59,1.66-2.72,4.75-2.72,8.44,0,3.92,1.24,7.26,3,8.81C326.29,257,327,258,328,258s1.66-1,2.15-2.53c1.77-1.55,3-4.89,3-8.81C333.12,243,332,239.91,330.4,238.25Zm46.05,7.88v-.3c0-3-1-5.45-2.29-5.45s-2.29,2.44-2.29,5.45v.3c-1.48,1.55-2.53,4.44-2.53,7.88,0,3.67,1.15,6.78,2.81,8.23.45,1.4,1.16,2.36,2,2.36s1.55-1,2-2.36c1.65-1.44,2.81-4.56,2.81-8.23C379,250.57,377.94,247.68,376.45,246.13Z" transform="translate(-113.18 -114.28)"/><path class="cls-4" d="M225,230.07v-.32c0-3.23,1.1-5.84,2.45-5.84s2.45,2.61,2.45,5.84v.32c1.59,1.66,2.72,4.75,2.72,8.44,0,3.92-1.24,7.26-3,8.81-.49,1.49-1.25,2.53-2.16,2.53s-1.67-1-2.16-2.53c-1.76-1.55-3-4.89-3-8.81C222.27,234.82,223.39,231.73,225,230.07Zm-53.55,8.18v-.32c0-3.23,1.09-5.84,2.44-5.84s2.45,2.61,2.45,5.84v.32c1.59,1.66,2.72,4.75,2.72,8.44,0,3.92-1.24,7.26-3,8.81-.49,1.49-1.25,2.53-2.16,2.53s-1.66-1-2.15-2.53c-1.77-1.55-3-4.89-3-8.81C168.71,243,169.83,239.91,171.43,238.25Zm-46.05,7.88v-.3c0-3,1-5.45,2.29-5.45s2.29,2.44,2.29,5.45v.3c1.48,1.55,2.53,4.44,2.53,7.88,0,3.67-1.15,6.78-2.81,8.23-.45,1.4-1.16,2.36-2,2.36s-1.56-1-2-2.36c-1.64-1.44-2.81-4.56-2.81-8.23C122.85,250.57,123.89,247.68,125.38,246.13Zm-12.2-46.56v26.79l137.73-25v-28.8Z" transform="translate(-113.18 -114.28)"/><path class="cls-3" d="M250.91,172.55v28.8l137.74,25V199.57Z" transform="translate(-113.18 -114.28)"/></svg>